<svg width="21" height="19" viewBox="0 0 21 19" fill="none" xmlns="http://www.w3.org/2000/svg">
<g filter="url(#filter0_d_2128_18)">
<path d="M12.2021 4.98548H10.8716V10.5073H12.2021V4.98548Z" fill="#808080"/>
<path d="M9.46239 4.98548H8.13184V10.5073H9.46239V4.98548Z" fill="#808080"/>
<path d="M16.478 2.16712C16.4754 2.03061 16.4295 1.89846 16.3469 1.78975C16.2642 1.68104 16.1492 1.6014 16.0184 1.56232C15.9596 1.53782 15.8974 1.52252 15.8339 1.51696H12.2868C12.1525 1.07791 11.8808 0.693554 11.5117 0.420471C11.1426 0.147388 10.6956 0 10.2365 0C9.77738 0 9.33038 0.147388 8.96129 0.420471C8.5922 0.693554 8.32053 1.07791 8.18625 1.51696H4.63911C4.58068 1.51814 4.52269 1.52729 4.46674 1.54418H4.45162C4.31318 1.58701 4.19334 1.67547 4.11163 1.79515C4.02992 1.91483 3.99117 2.05866 4.00169 2.20319C4.01222 2.34771 4.0714 2.48441 4.16958 2.59099C4.26776 2.69757 4.39916 2.76774 4.54234 2.79006L5.25298 12.5334C5.26382 12.9127 5.41693 13.2741 5.68191 13.5458C5.94688 13.8175 6.30435 13.9797 6.68332 14H13.7867C14.1662 13.9804 14.5244 13.8186 14.79 13.5468C15.0556 13.2751 15.2092 12.9132 15.22 12.5334L15.9277 2.79914C16.0802 2.77797 16.22 2.70232 16.3212 2.58615C16.4223 2.46999 16.478 2.32116 16.478 2.16712ZM10.2365 1.21456C10.3661 1.21458 10.4943 1.24146 10.6129 1.29351C10.7316 1.34556 10.8382 1.42164 10.926 1.51696H9.54704C9.63459 1.42135 9.74114 1.34507 9.85986 1.29299C9.97859 1.24092 10.1069 1.21421 10.2365 1.21456ZM13.7867 12.7904H6.68332C6.60168 12.7904 6.47467 12.6573 6.45955 12.4457L5.75798 2.81123H14.715L14.0135 12.4457C13.9984 12.6573 13.8714 12.7904 13.7867 12.7904Z" fill="#808080"/>
</g>
<defs>
<filter id="filter0_d_2128_18" x="0" y="0" width="20.478" height="22" filterUnits="userSpaceOnUse" color-interpolation-filters="sRGB">
<feFlood flood-opacity="0" result="BackgroundImageFix"/>
<feColorMatrix in="SourceAlpha" type="matrix" values="0 0 0 0 0 0 0 0 0 0 0 0 0 0 0 0 0 0 127 0" result="hardAlpha"/>
<feOffset dy="4"/>
<feGaussianBlur stdDeviation="2"/>
<feComposite in2="hardAlpha" operator="out"/>
<feColorMatrix type="matrix" values="0 0 0 0 0 0 0 0 0 0 0 0 0 0 0 0 0 0 0.25 0"/>
<feBlend mode="normal" in2="BackgroundImageFix" result="effect1_dropShadow_2128_18"/>
<feBlend mode="normal" in="SourceGraphic" in2="effect1_dropShadow_2128_18" result="shape"/>
</filter>
</defs>
</svg>
